<?xml version="1.0" encoding="utf-8"?>
<!-- Generator: Adobe Illustrator 21.1.0, SVG Export Plug-In . SVG Version: 6.00 Build 0)  -->
<svg version="1.1" id="Icons" xmlns="http://www.w3.org/2000/svg" xmlns:xlink="http://www.w3.org/1999/xlink" x="0px" y="0px"
	 viewBox="0 0 48 48" style="enable-background:new 0 0 48 48;" xml:space="preserve">
<style type="text/css">
	.st0{opacity:0.15;fill:#45413C;}
	.st1{fill:#FFE500;}
	.st2{fill:#EBCB00;}
	.st3{fill:none;stroke:#45413C;stroke-linecap:round;stroke-linejoin:round;stroke-miterlimit:10;}
	.st4{fill:#FFAA54;}
	.st5{fill:#FF8A14;}
	.st6{fill:#FFB0CA;stroke:#45413C;stroke-linecap:round;stroke-linejoin:round;stroke-miterlimit:10;}
	.st7{fill:#FF87AF;stroke:#45413C;stroke-linecap:round;stroke-linejoin:round;stroke-miterlimit:10;}
	.st8{fill:#FFCC99;}
	.st9{fill:#FFFFFF;}
	.st10{fill:#F0F0F0;}
	.st11{fill:#BF8256;}
	.st12{fill:#915E3A;}
	.st13{fill:#DEA47A;}
	.st14{fill:#F0D5A8;}
	.st15{fill:#DEBB7E;}
	.st16{fill:#F7E5C6;}
	.st17{fill:#FF8A14;stroke:#45413C;stroke-linecap:round;stroke-linejoin:round;stroke-miterlimit:10;}
	.st18{fill:#FFF5E3;}
	.st19{fill:#FFF48C;}
	.st20{fill:#FFFACF;}
	.st21{fill:#FFFCE5;}
	.st22{fill:#FF87AF;}
	.st23{fill:#FFB0CA;}
	.st24{fill:#FFE500;stroke:#45413C;stroke-linecap:round;stroke-linejoin:round;stroke-miterlimit:10;}
	.st25{fill:#9CEB60;stroke:#45413C;stroke-linecap:round;stroke-linejoin:round;stroke-miterlimit:10;}
	.st26{fill:#FFFACF;stroke:#45413C;stroke-linecap:round;stroke-linejoin:round;stroke-miterlimit:10;}
	.st27{fill:#00F5BC;stroke:#45413C;stroke-linecap:round;stroke-linejoin:round;stroke-miterlimit:10;}
	.st28{fill:#BF8256;stroke:#45413C;stroke-linecap:round;stroke-linejoin:round;stroke-miterlimit:10;}
	.st29{fill:#FFE3CF;stroke:#45413C;stroke-linecap:round;stroke-linejoin:round;stroke-miterlimit:10;}
	.st30{fill:#FF6242;}
	.st31{fill:#FF866E;}
	.st32{fill:none;stroke:#E04122;stroke-linecap:round;stroke-linejoin:round;stroke-miterlimit:10;}
	.st33{fill:#FFFEF2;stroke:#45413C;stroke-linecap:round;stroke-linejoin:round;stroke-miterlimit:10;}
	.st34{fill:#FF6242;stroke:#45413C;stroke-linecap:round;stroke-linejoin:round;stroke-miterlimit:10;}
	.st35{fill:#FFA694;}
	.st36{fill:#FFFFFF;stroke:#45413C;stroke-linecap:round;stroke-linejoin:round;stroke-miterlimit:10;}
	.st37{fill:#FFFEF2;}
	.st38{fill:#FF6196;}
	.st39{fill:#B89558;}
	.st40{fill:none;stroke:#915E3A;stroke-linecap:round;stroke-linejoin:round;stroke-miterlimit:10;}
	.st41{fill:#DEBB7E;stroke:#45413C;stroke-linecap:round;stroke-linejoin:round;stroke-miterlimit:10;}
	.st42{fill:#6DD627;stroke:#45413C;stroke-linecap:round;stroke-linejoin:round;stroke-miterlimit:10;}
	.st43{fill:#E5F8FF;}
	.st44{fill:#E8F4FA;}
	.st45{fill:#E8F4FA;stroke:#45413C;stroke-linecap:round;stroke-linejoin:round;stroke-miterlimit:10;}
	.st46{fill:#FFCCDD;}
	.st47{fill:#E5F8FF;stroke:#45413C;stroke-linecap:round;stroke-linejoin:round;stroke-miterlimit:10;}
	.st48{fill:#00B8F0;stroke:#45413C;stroke-linecap:round;stroke-linejoin:round;stroke-miterlimit:10;}
	.st49{fill:#00B8F0;}
	.st50{fill:#4ACFFF;}
	.st51{fill:#E04122;}
	.st52{fill:#E04122;stroke:#45413C;stroke-linecap:round;stroke-linejoin:round;stroke-miterlimit:10;}
	.st53{fill:#87898C;}
	.st54{fill:#BDBEC0;}
	.st55{fill:#656769;}
	.st56{fill:#525252;}
	.st57{fill:#FFF48C;stroke:#45413C;stroke-linecap:round;stroke-linejoin:round;stroke-miterlimit:10;}
	.st58{fill:#6DD627;}
	.st59{fill:#EB6D00;}
	.st60{fill:#46B000;}
	.st61{fill:#80DDFF;}
	.st62{fill:#DAEDF7;}
	.st63{fill:#BF8DF2;stroke:#45413C;stroke-linecap:round;stroke-linejoin:round;stroke-miterlimit:10;}
	.st64{fill:#9F5AE5;stroke:#45413C;stroke-linecap:round;stroke-linejoin:round;stroke-miterlimit:10;}
	.st65{fill:#C8FFA1;}
	.st66{fill:#E4FFD1;}
	.st67{fill:#9CEB60;}
	.st68{fill:#E5FEFF;}
	.st69{fill:#B8ECFF;}
	.st70{fill:#E0E0E0;stroke:#45413C;stroke-linecap:round;stroke-linejoin:round;stroke-miterlimit:10;}
	.st71{fill:#E0E0E0;}
	.st72{fill:none;stroke:#4F4B45;stroke-linejoin:round;stroke-miterlimit:10;}
	.st73{fill:none;stroke:#4F4B45;stroke-linecap:round;stroke-linejoin:round;stroke-miterlimit:10;}
	.st74{fill:#E0366F;stroke:#45413C;stroke-linecap:round;stroke-linejoin:round;stroke-miterlimit:10;}
	.st75{fill:none;stroke:#45413C;stroke-miterlimit:10;}
	.st76{fill:#FF866E;stroke:#45413C;stroke-linecap:round;stroke-linejoin:round;stroke-miterlimit:10;}
	.st77{fill:#45413C;stroke:#45413C;stroke-linecap:round;stroke-linejoin:round;stroke-miterlimit:10;}
	.st78{fill:#9F5AE5;}
	.st79{fill:#803EC2;}
	.st80{fill:#803EC2;stroke:#45413C;stroke-linecap:round;stroke-linejoin:round;stroke-miterlimit:10;}
	.st81{fill:#BF8DF2;}
	.st82{fill:#FFAA54;stroke:#45413C;stroke-linecap:round;stroke-linejoin:round;stroke-miterlimit:10;}
	.st83{fill:none;stroke:#45413C;stroke-linejoin:round;stroke-miterlimit:10;}
	.st84{fill:#FFCCDD;stroke:#45413C;stroke-linecap:round;stroke-linejoin:round;stroke-miterlimit:10;}
	.st85{fill:#FF6196;stroke:#45413C;stroke-linecap:round;stroke-linejoin:round;stroke-miterlimit:10;}
	.st86{fill:#FFE5EE;}
	.st87{fill:#F7E5C6;stroke:#45413C;stroke-linecap:round;stroke-linejoin:round;stroke-miterlimit:10;}
	.st88{fill:#E5FFF9;}
	.st89{fill:none;stroke:#45413C;stroke-width:1.0064;stroke-linecap:round;stroke-linejoin:round;stroke-miterlimit:10;}
	.st90{fill:#4AEFF7;}
	.st91{fill:#A6FBFF;}
	.st92{fill:#E5FEFF;stroke:#45413C;stroke-linecap:round;stroke-linejoin:round;stroke-miterlimit:10;}
	.st93{fill:#46B000;stroke:#45413C;stroke-linecap:round;stroke-linejoin:round;stroke-miterlimit:10;}
	.st94{fill:#FFFFFF;stroke:#45413C;stroke-linejoin:round;stroke-miterlimit:10;}
	.st95{fill:#FFFFFF;stroke:#45413C;stroke-miterlimit:10;}
	.st96{fill:#009FD9;}
	.st97{fill:#00DFEB;}
	.st98{fill:#C0DCEB;stroke:#45413C;stroke-linecap:round;stroke-linejoin:round;stroke-miterlimit:10;}
	.st99{fill:#00DFEB;stroke:#45413C;stroke-linecap:round;stroke-linejoin:round;stroke-miterlimit:10;}
	.st100{fill:#FFE5EE;stroke:#45413C;stroke-linecap:round;stroke-linejoin:round;stroke-miterlimit:10;}
	.st101{fill:#8CA4B8;}
	.st102{fill:#ADC4D9;}
	.st103{fill:#656769;stroke:#45413C;stroke-linecap:round;stroke-linejoin:round;stroke-miterlimit:10;}
	.st104{fill:#F0F0F0;stroke:#45413C;stroke-linecap:round;stroke-linejoin:round;stroke-miterlimit:10;}
	.st105{fill:#C0DCEB;}
	.st106{fill:#45413C;}
	.st107{fill:#FFCABF;}
	.st108{fill:#87898C;stroke:#45413C;stroke-linecap:round;stroke-linejoin:round;stroke-miterlimit:10;}
	.st109{fill:#EBCB00;stroke:#45413C;stroke-linecap:round;stroke-linejoin:round;stroke-miterlimit:10;}
</style>
<g id="XMLID_12716_">
	<ellipse id="XMLID_12731_" class="st0" cx="24.3" cy="45.8" rx="9.4" ry="1.2"/>
	<path id="XMLID_12730_" class="st58" d="M31.6,44.1c0.2,0.7-0.2,1.4-0.9,1.5c-0.7,0.1-1.4,0.1-2,0.1c-3.1-0.2-6-1.7-7.6-4.2
		c-4.1-6.5-0.4-14.7-0.2-15c0.3-0.6,1-0.8,1.6-0.6c0.6,0.3,0.8,1,0.6,1.6l0,0c0,0.1-3.4,7.4,0.1,12.8c1.5,2.3,4.4,3.5,7.3,3.1
		C30.9,43.2,31.5,43.6,31.6,44.1L31.6,44.1z"/>
	<path id="XMLID_12729_" class="st60" d="M23,27.4c0,0-1.5,3.2-1.5,7c0,0.7,0,1.3,0.2,2h-2.4c-0.7-5.1,1.5-9.7,1.6-10
		c0.3-0.6,1-0.8,1.6-0.6C23,26.2,23.2,26.9,23,27.4z"/>
	<path id="XMLID_12728_" class="st75" d="M23,27.4c0,0.1-3.4,7.4,0.1,12.8c1.5,2.3,4.4,3.5,7.3,3.1c0.6-0.1,1.2,0.3,1.3,0.8
		c0.2,0.7-0.2,1.4-0.9,1.5c-0.7,0.1-1.4,0.1-2,0.1c-3.1-0.2-6-1.7-7.6-4.2c-4.1-6.5-0.4-14.7-0.2-15c0.3-0.6,1-0.8,1.6-0.6
		C23,26.2,23.2,26.9,23,27.4z"/>
	<path id="XMLID_12727_" class="st58" d="M30.5,29.4c0-0.8-0.3-1.6-0.7-2.3c0.5,0.8,1,1.3,1.7,1.7c3.7,2.2,7.8-2.2,5.7-5.9l-0.9-1.6
		c-0.2-0.3-0.1-0.6,0.2-0.8l1.5-1c3.5-2.3,1.9-8.1-2.3-7.9c-0.8,0-1.6,0.3-2.3,0.7c0.8-0.5,1.3-1,1.7-1.7C37.3,7,33,2.9,29.3,5
		l-1.6,0.9C27.4,6,27,5.9,26.9,5.6l-1-1.5c-2.3-3.5-8.1-1.9-7.9,2.3c0,0.8,0.3,1.6,0.7,2.3C18.3,8,17.7,7.4,17,7
		c-3.7-2.2-7.8,2.2-5.7,5.9l0.9,1.6c0.2,0.3,0.1,0.6-0.2,0.8l-1.5,1c-3.5,2.3-1.9,8.1,2.3,7.9c0.8,0,1.6-0.3,2.3-0.7
		c-0.8,0.5-1.3,1-1.7,1.7c-2.2,3.7,2.2,7.8,5.9,5.7l1.6-0.9c0.3-0.2,0.6-0.1,0.8,0.2l1,1.5C25,35.3,30.7,33.7,30.5,29.4z"/>
	<g id="XMLID_12725_">
		<path id="XMLID_12726_" class="st67" d="M18.7,8.7C18.3,8,17.7,7.4,17,7c-3.7-2.2-7.8,2.2-5.7,5.9l0.9,1.6
			c-1.4-5.8,5.1-8.1,7.8-3.6L18.7,8.7z"/>
	</g>
	<g id="XMLID_12722_">
		<path id="XMLID_12724_" class="st67" d="M25.9,7.8l1,1.5c0.2,0.3,0.5,0.4,0.8,0.2l1.6-0.9c2.4-1.3,5-0.1,6,1.9
			c1.9-3.6-2.4-7.5-6-5.5l-1.6,0.9C27.4,6,27,5.9,26.9,5.6l-1-1.5c-2.3-3.5-8.1-1.9-7.9,2.3c0,0.6,0.2,1.1,0.4,1.7
			C19.7,5.4,24,4.8,25.9,7.8z"/>
		<path id="XMLID_12723_" class="st67" d="M10.4,20l1.5-1c0.3-0.2,0.4-0.5,0.2-0.8l-0.9-1.6c-0.1-0.2-0.2-0.4-0.3-0.6l-0.6,0.4
			c-2,1.3-2.3,3.7-1.6,5.5C9.2,21.1,9.7,20.4,10.4,20z"/>
	</g>
	<path id="XMLID_12721_" class="st3" d="M30.5,29.4c0-0.8-0.3-1.6-0.7-2.3c0.5,0.8,1,1.3,1.7,1.7c3.7,2.2,7.8-2.2,5.7-5.9l-0.9-1.6
		c-0.2-0.3-0.1-0.6,0.2-0.8l1.5-1c3.5-2.3,1.9-8.1-2.3-7.9c-0.8,0-1.6,0.3-2.3,0.7c0.8-0.5,1.3-1,1.7-1.7C37.3,7,33,2.9,29.3,5
		l-1.6,0.9C27.4,6,27,5.9,26.9,5.6l-1-1.5c-2.3-3.5-8.1-1.9-7.9,2.3c0,0.8,0.3,1.6,0.7,2.3C18.3,8,17.7,7.4,17,7
		c-3.7-2.2-7.8,2.2-5.7,5.9l0.9,1.6c0.2,0.3,0.1,0.6-0.2,0.8l-1.5,1c-3.5,2.3-1.9,8.1,2.3,7.9c0.8,0,1.6-0.3,2.3-0.7
		c-0.8,0.5-1.3,1-1.7,1.7c-2.2,3.7,2.2,7.8,5.9,5.7l1.6-0.9c0.3-0.2,0.6-0.1,0.8,0.2l1,1.5C25,35.3,30.7,33.7,30.5,29.4z"/>
	<line id="XMLID_12720_" class="st3" x1="18.7" y1="8.7" x2="21.4" y2="13.2"/>
	<line id="XMLID_12719_" class="st3" x1="27.1" y1="22.7" x2="29.8" y2="27.1"/>
	<line id="XMLID_12718_" class="st3" x1="29" y1="15.1" x2="33.5" y2="12.4"/>
	<line id="XMLID_12717_" class="st3" x1="15.1" y1="23.5" x2="19.5" y2="20.8"/>
</g>
</svg>
